# xmcd CD database file
#
# Track frame offsets:
#	150
#	11397
#	40427
#	74735
#	97407
#	112587
#	136440
#	166637
#	191525
#	222970
#	248945
#
# Disc length: 3572 seconds
#
# Revision: 2
# Processed by: cddbd v1.5.2PL0 Copyright (c) Steve Scherf et al.
# Submitted via: CDex 1.51
#
DISCID=9a0df20b
DTITLE=Enrico Pieranunzi - Un'alba dipinta sui muri
DYEAR=1998
DGENRE=Jazz
TTITLE0=Blues No End
TTITLE1=The Flower
TTITLE2=Blu Laggi
TTITLE3=Narrations du Large
TTITLE4=During Cruise Only
TTITLE5=The Jazzter
TTITLE6=Un'alba Dipinta Sui Muri
TTITLE7=Drimlav
TTITLE8=Intus/Oleo
TTITLE9=Adjapi
TTITLE10=Seaword
EXTD=YEAR: 1998
EXTT0=
EXTT1=
EXTT2=
EXTT3=
EXTT4=
EXTT5=
EXTT6=
EXTT7=
EXTT8=
EXTT9=
EXTT10=
PLAYORDER=
